<svg xmlns="http://www.w3.org/2000/svg" viewBox="0 0 1510 1510"><defs><style>.a{fill:none;}.b{fill:#fff;}</style></defs><rect class="a" width="1510" height="1510"/><path class="b" d="M1256.06,726.36h307c14.12,0,28.27.27,42.39,0h.63c18.83,0,36.87-16.56,36-36s-15.81-36-36-36h-307c-14.12,0-28.27-.27-42.39,0h-.64c-18.83,0-36.87,16.56-36,36s15.82,36,36,36Z" transform="translate(-917.5 -10.5)"/><path class="b" d="M1721.06,625.86l34.77-.05,83.48-.12,101-.14,87.29-.13c14.1,0,28.23.23,42.33-.06h.63c18.83,0,36.87-16.54,36-36s-15.82-36-36-36l-34.76,0-83.49.12-101,.15-87.29.12c-14.11,0-28.24-.22-42.33.06h-.64c-18.83,0-36.87,16.54-36,36s15.82,36,36,36Z" transform="translate(-917.5 -10.5)"/><path class="b" d="M2035.06,765.86V872.52l1.29-9.57a91.91,91.91,0,0,1-5.8,18.66l3.63-8.6a131.76,131.76,0,0,1-16.8,28.55l5.63-7.29a161.42,161.42,0,0,1-28.79,28.49l7.29-5.63a214.7,214.7,0,0,1-46.15,26.49L1964,940c-25.25,10.61-51.91,17.28-79,21l9.57-1.29a382.36,382.36,0,0,1-100.14-.25l9.57,1.29a353.32,353.32,0,0,1-71.82-17.47c-8.38-3-20.28-.73-27.74,3.63s-14.58,12.93-16.54,21.52c-2.1,9.21-1.64,19.56,3.63,27.74s12.29,13.21,21.51,16.54c41.08,14.83,85.51,21.78,129.11,22.18,43,.4,87.31-5.58,127.81-20.25,36.41-13.18,71.94-32.6,97.87-62,16.07-18.21,29-39,36-62.41,4.12-13.75,3.27-28.16,3.27-42.38v-82c0-18.83-16.55-36.87-36-36s-36,15.82-36,36Z" transform="translate(-917.5 -10.5)"/><path class="b" d="M1256.06,625.36h307c14.12,0,28.27.27,42.39,0h.63c18.83,0,36.87-16.56,36-36s-15.81-36-36-36h-307c-14.12,0-28.27-.27-42.39,0h-.64c-18.83,0-36.87,16.56-36,36s15.82,36,36,36Z" transform="translate(-917.5 -10.5)"/><path class="b" d="M1502.56,962.36H1371.44c-8.94,0-17.85.21-26.74-.92l9.57,1.28a107.36,107.36,0,0,1-25.92-7l8.6,3.63a107.67,107.67,0,0,1-22.72-13.16l7.28,5.63a108.23,108.23,0,0,1-19.36-19.37l5.63,7.29A108.22,108.22,0,0,1,1294.61,917l3.63,8.6a107.31,107.31,0,0,1-7-25.93l1.29,9.57a109,109,0,0,1,0-27.72l-1.29,9.57a107.56,107.56,0,0,1,7-25.93l-3.63,8.6A108.22,108.22,0,0,1,1307.78,851l-5.63,7.29A108.17,108.17,0,0,1,1321.51,839l-7.28,5.62A108.11,108.11,0,0,1,1337,831.41l-8.6,3.63a107.36,107.36,0,0,1,25.92-7l-9.57,1.29c8.23-1.06,16.44-.93,24.72-.93h119c9.33,0,18.68-.26,28,.93l-9.57-1.29a107.36,107.36,0,0,1,25.92,7l-8.6-3.63a108.11,108.11,0,0,1,22.72,13.16l-7.28-5.62A108.5,108.5,0,0,1,1559,858.31l-5.63-7.29a108.18,108.18,0,0,1,13.16,22.72l-3.63-8.6a107.1,107.1,0,0,1,7,25.93l-1.28-9.57a109,109,0,0,1,0,27.72l1.28-9.57a106.85,106.85,0,0,1-7,25.93l3.63-8.6a108.18,108.18,0,0,1-13.16,22.72l5.63-7.29a108.55,108.55,0,0,1-19.36,19.37l7.28-5.63a107.67,107.67,0,0,1-22.72,13.16l8.6-3.63a107.36,107.36,0,0,1-25.92,7l9.57-1.28a116.9,116.9,0,0,1-13.87.92c-18.82.13-36.87,16.47-36,36s15.82,36.14,36,36c51.65-.34,103-30.34,124.79-78,5.57-12.18,10.1-24.29,12-37.56a156,156,0,0,0,0-46.86c-3.75-25.69-16.1-49-32.74-68.61-26.78-31.57-67.51-47-108.19-47h-73.33q-32.73,0-65.45,0a141.44,141.44,0,0,0-118.57,64.75c-28.33,43.56-28.45,103.54-.71,147.4a141.28,141.28,0,0,0,119.09,65.85c46.2.09,92.4,0,138.6,0h4.51c18.83,0,36.87-16.56,36-36S1522.75,962.36,1502.56,962.36Z" transform="translate(-917.5 -10.5)"/><path class="b" d="M2034.56,589.36l.34,59.54.54,95.54.12,21.92c.11,18.83,16.49,36.88,36,36s36.12-15.82,36-36l-.33-59.54-.54-95.54-.13-21.92c-.1-18.83-16.48-36.87-36-36s-36.11,15.82-36,36Z" transform="translate(-917.5 -10.5)"/></svg>