<svg xmlns="http://www.w3.org/2000/svg" viewBox="0 0 1412 1412"><defs><style>.a{fill:none;}.b{fill:#fff;}</style></defs><rect class="a" width="1412" height="1412"/><path class="b" d="M63,473V761H345v74H63V943H345c7.08,0,46.27-1,77-33,28.85-30,29.95-66.21,30-74V653H170V580H452V473Z"/><polyline class="b" points="513 473 513 580 900 580 900 473"/><rect class="b" x="513" y="654" width="387" height="108"/><polyline class="b" points="513 835 513 943 900 943 900 835"/><path class="b" d="M963,473V580h289v74H963V762h289v73H963V943h289c8-.38,47.44-3.07,78-36,26.93-29,29.58-62.77,30-72V580c-.16-7.66-1.75-44.75-32-75-5.42-5.42-32.23-31.09-75-32Z"/></svg>